# xmcd
#
# Track frame offsets:
#	150
#	12193
#	23589
#	38240
#	51610
#	64034
#	76770
#	90434
#	103367
#	121079
#	133854
#	151663
#	166139
#	182604
#
# Disc length: 2646 seconds
#
# Revision: 1
# Processed by: cddbd v1.5.2PL0 Copyright (c) Steve Scherf et al.
# Submitted via: audiograbber 1.83.01
#
DISCID=a50a540e
DTITLE=Johnny Loughrey - Altogether Now
DYEAR=2005
DGENRE=
TTITLE0=I Can't See Me
TTITLE1=Lets Fall Apart
TTITLE2=Life Turned Her
TTITLE3=Keeper Of My Heart
TTITLE4=Baby Sings The Blues
TTITLE5=Down Easy
TTITLE6=The Image Of Me
TTITLE7=Stone Cold Heart
TTITLE8=Don't Give Up On Me Lord
TTITLE9=Back To Georgia
TTITLE10=Gave Me A Mountain
TTITLE11=Crossing Her Mind
TTITLE12=The Gambler
TTITLE13=Ave Maria (Mother Of God)
EXTD=
EXTT0=
EXTT1=
EXTT2=
EXTT3=
EXTT4=
EXTT5=
EXTT6=
EXTT7=
EXTT8=
EXTT9=
EXTT10=
EXTT11=
EXTT12=
EXTT13=
PLAYORDER=
